HIERARCHY
ROOT Hips
{
  OFFSET 2.26061 22.2878 23.7974
  CHANNELS 6 Xposition Yposition Zposition Zrotation Xrotation Yrotation
  JOINT LeftUpLeg
  {
    OFFSET 8.64259 1.95398 -2.38835
    CHANNELS 3 Zrotation Xrotation Yrotation
    JOINT LeftLeg
    {
      OFFSET 43.7702 0 0
      CHANNELS 3 Zrotation Xrotation Yrotation
      JOINT LeftFoot
      {
        OFFSET 40.6238 0 0
        CHANNELS 3 Zrotation Xrotation Yrotation
        JOINT LeftToeBase
        {
          OFFSET 12.7242 0 0
          CHANNELS 3 Zrotation Xrotation Yrotation
          End Site
          {
            OFFSET 0 0 0
          }
        }
      }
    }
  }
  JOINT RightUpLeg
  {
    OFFSET -8.2249 1.95398 -2.59336
    CHANNELS 3 Zrotation Xrotation Yrotation
    JOINT RightLeg
    {
      OFFSET 43.5653 0 0
      CHANNELS 3 Zrotation Xrotation Yrotation
      JOINT RightFoot
      {
        OFFSET 40.6238 0 0
        CHANNELS 3 Zrotation Xrotation Yrotation
        JOINT RightToeBase
        {
          OFFSET 12.7242 0 0
          CHANNELS 3 Zrotation Xrotation Yrotation
          End Site
          {
            OFFSET 0 0 0
          }
        }
      }
    }
  }
  JOINT Spine
  {
    OFFSET 0.165834 0.87714 6.61349
    CHANNELS 3 Zrotation Xrotation Yrotation
    JOINT Spine1
    {
      OFFSET 7.38963 1.71661e-005 0
      CHANNELS 3 Zrotation Xrotation Yrotation
      JOINT Spine2
      {
        OFFSET 11.9445 1.14441e-005 0
        CHANNELS 3 Zrotation Xrotation Yrotation
        JOINT Spine3
        {
          OFFSET 14.7254 4.19617e-005 0
          CHANNELS 3 Zrotation Xrotation Yrotation
          JOINT Spine4
          {
            OFFSET 10.9679 0 0
            CHANNELS 3 Zrotation Xrotation Yrotation
            JOINT RightShoulder
            {
              OFFSET 2.46616 -1.6653 3.69651
              CHANNELS 3 Zrotation Xrotation Yrotation
              JOINT RightArm
              {
                OFFSET 13.0012 0 0
                CHANNELS 3 Zrotation Xrotation Yrotation
                JOINT RightForeArm
                {
                  OFFSET 28.7848 1.52588e-005 0
                  CHANNELS 3 Zrotation Xrotation Yrotation
                  JOINT RightHand
                  {
                    OFFSET 26.5688 1.52588e-005 0
                    CHANNELS 3 Zrotation Xrotation Yrotation
                    End Site
                    {
                      OFFSET 0 0 0
                    }
                  }
                }
              }
            }
            JOINT LeftShoulder
            {
              OFFSET 2.38034 -1.29275 -3.7523
              CHANNELS 3 Zrotation Xrotation Yrotation
              JOINT LeftArm
              {
                OFFSET 16.3182 6.10351e-005 0
                CHANNELS 3 Zrotation Xrotation Yrotation
                JOINT LeftForeArm
                {
                  OFFSET 27.0901 0 0
                  CHANNELS 3 Zrotation Xrotation Yrotation
                  JOINT LeftHand
                  {
                    OFFSET 24.5451 1.52588e-005 0
                    CHANNELS 3 Zrotation Xrotation Yrotation
                    End Site
                    {
                      OFFSET 0 0 0
                    }
                  }
                }
              }
            }
            JOINT Neck
            {
              OFFSET 5.0226 -0.0266342 0
              CHANNELS 3 Zrotation Xrotation Yrotation
              JOINT Head
              {
                OFFSET 6.69363 2.86102e-005 0
                CHANNELS 3 Zrotation Xrotation Yrotation
                End Site
                {
                  OFFSET 0 0 0
                }
              }
            }
          }
        }
      }
    }
  }
}
MOTION
Frames:	18
Frame Time:	0.0416667
-230.141 91.2564 -254.345 -94.8693 42.1981 -86.9377 -173.265 -2.54666 94.7844 -47.4851 34.0453 4.15754 52.5711 -4.16982 0.215628 51.0674 19.9553 11.7108 174.745 23.7664 93.3317 -37.8669 0.304111 -0.122973 66.4514 -3.20843 -1.7476 29.3938 0.0108667 0.264974 -1.02132 7.52677 -90.009 11.8232 -2.03518 0.200292 0.153842 -2.0244 0.289707 -22.3936 -2.00124 -0.420865 -2.381 -2.00125 -0.420872 94.1916 -54.3966 -93.7201 14.5363 2.85165 17.1086 -8.40024 -19.2804 -35.6393 -5.30186 -0.874942 7.16204 -100.708 -52.1596 63.7839 -8.66361 1.77261 5.28582 11.938 5.11058 -57.0292 14.71 1.09834 3.51742 3.6489 7.34383 -1.93614 3.69997 8.09823 8.73526 
-225.029 91.312 -248.018 -94.6256 38.2835 -87.3165 -173.107 -4.4055 93.7096 -41.1451 32.132 4.45192 61.1414 3.29995 5.31325 53.6253 20.6841 5.28939 173.879 25.6797 91.4788 -30.9262 1.51207 0.490393 59.4055 -0.746363 -0.339358 25.298 -0.178453 0.106637 -1.35198 7.69045 -90.0151 11.4971 -2.69687 0.245355 -0.171073 -2.68346 0.363901 -22.728 -2.64584 -0.577096 -2.71535 -2.64583 -0.577092 94.822 -56.9171 -92.4722 14.6999 3.12285 18.3234 -1.65772 -8.29831 -31.6271 -11.0963 -1.24478 7.10389 -100.487 -50.5113 63.4915 -7.33479 1.98132 0.285229 9.91102 5.78156 -51.7636 16.2262 1.42032 4.83261 3.84076 6.49832 -4.55586 4.08422 7.82167 10.7281 
-218.291 91.948 -241.071 -92.3095 39.4825 -92.2073 -172.705 0.150123 88.5817 -35.3557 20.6766 0.67731 65.7381 7.28131 7.21781 50.2926 17.0567 1.4105 174.635 25.44 88.0035 -13.3149 -3.85282 -1.13808 45.6494 3.19659 3.01691 26.4744 0.162095 -3.28132 -1.19997 7.70802 -89.6191 11.4686 -2.20941 0.983454 -0.200941 -2.16398 1.07976 -22.7508 -2.40278 0.273629 -2.73811 -2.40277 0.273626 94.4602 -58.0809 -92.8365 15.7516 1.42377 16.6218 1.35754 -6.23612 -30.5101 -10.6288 -0.981294 5.10457 -100.404 -49.3483 63.176 -7.75899 2.42871 -1.66707 8.17832 5.69407 -48.2263 16.8085 1.1573 3.00519 4.46828 5.92357 -5.84068 5.26332 7.57005 10.6196 
-213.417 93.3346 -234.607 -93.1358 43.0903 -91.5078 -172.856 1.70305 86.6034 -30.7955 17.6688 -0.505639 67.9747 8.61024 6.59099 40.1689 9.12045 3.08379 175.535 23.3683 87.5396 -10.9901 -10.0765 -2.61884 46.3934 3.15146 2.92772 39.3983 0.369965 -6.48376 -0.731793 7.88555 -89.6089 11.1078 -1.2751 0.901019 -0.562883 -1.23422 0.956264 -23.1021 -1.48692 0.476096 -3.08948 -1.48693 0.476089 93.9417 -58.5999 -93.4948 15.6392 -0.866839 14.8737 -1.36202 -12.2465 -35.6119 -8.08993 -0.846029 5.08349 -100.255 -49.5597 63.4719 -9.35436 5.09504 0.608952 7.49417 5.74101 -47.8232 16.3885 1.16912 3.24757 4.32728 5.84985 -4.78877 6.47131 7.35386 9.64293 
-208.617 94.8784 -229.231 -94.7511 45.0712 -88.2753 -172.799 4.20957 87.5715 -28.3771 15.348 -0.338905 65.3557 5.48374 4.66725 38.5313 7.74065 2.45346 177.619 22.9829 88.5166 -27.3217 -5.09702 -3.7479 54.2511 0.102009 0.286809 38.8852 0.295578 -8.7575 -0.418576 7.9806 -89.8277 10.9142 -0.753621 0.414537 -0.756579 -0.73464 0.447293 -23.2935 -0.84335 0.16886 -3.28081 -0.843365 0.168858 92.8868 -58.0139 -95.0578 15.5979 -3.57565 12.4742 -4.73758 -18.9677 -41.7023 -5.62268 -0.712822 4.38716 -100.325 -50.2182 63.618 -12.5218 8.25121 5.57474 7.1431 6.70193 -46.1238 15.267 1.13916 3.54371 3.60009 5.96861 -4.43899 6.61358 7.42144 9.81421 
-204.148 96.0871 -224.971 -94.4597 44.8101 -88.0304 -173.089 6.28351 87.7779 -23.2499 16.2662 -0.541879 61.0485 2.20961 5.79748 38.4162 7.55341 -0.446932 177.236 21.5035 88.0074 -43.0578 -0.115305 -3.98293 54.9009 -0.184773 0.0887209 44.9697 0.108115 -9.20295 -0.382645 7.79028 -89.9021 11.2943 -0.715754 0.266306 -0.376484 -0.70334 0.297544 -22.9132 -0.762706 0.0388695 -2.90057 -0.7627 0.038867 92.7015 -56.2885 -95.5917 16.1733 -6.41446 9.12434 -7.88743 -22.7331 -47.6301 -7.2081 -0.740108 2.63468 -100.621 -50.492 63.2937 -17.3361 11.3047 11.269 5.35225 7.865 -40.7877 13.2722 0.874599 2.6382 1.97297 6.04346 -3.20952 6.96026 7.24343 9.08541 
-199.416 96.2417 -220.88 -94.1272 44.2659 -87.9466 -173.014 9.42349 88.0203 -21.0087 15.2368 -0.892441 60.6843 1.72259 3.83024 32.4236 2.85443 0.376199 176.342 17.7715 87.4541 -54.1266 2.63954 -3.81879 56.6598 -1.09272 -0.560924 38.3458 0.350646 -6.61521 -0.211115 7.63068 -89.9365 11.6128 -0.390157 0.167018 -0.0580547 -0.382425 0.184022 -22.5937 -0.422308 0.0420451 -2.58103 -0.422323 0.0420304 93.3618 -55.6576 -94.7412 15.8457 -7.71027 5.64155 -12.5848 -23.241 -54.2272 -7.85398 -0.714108 1.63014 -100.781 -50.4383 63.0429 -21.6217 13.9297 15.3764 3.57473 10.4532 -34.3774 10.0719 0.632293 2.25257 2.15222 5.23972 -2.66838 6.10404 6.23363 8.1233 
-194.469 95.0612 -217.075 -92.6567 44.8605 -89.4581 -173.338 14.5951 87.5314 -21.6343 15.4211 -1.24506 61.3225 2.64489 4.90595 27.9459 -0.811778 1.32902 176.901 13.0874 86.681 -59.3981 -3.91466 -5.06976 51.8199 0.738671 0.767882 43.5221 0.228131 -7.88926 0.178186 7.4457 -89.8372 11.9825 0.431042 0.277351 0.31156 0.442837 0.258107 -22.2238 0.327766 0.39408 -2.21113 0.327739 0.394069 93.2083 -54.1594 -95.1976 16.0979 -7.44146 2.58411 -16.5462 -21.7749 -60.1333 -5.10815 -0.557427 0.216294 -99.9566 -49.9031 64.0328 -25.0969 15.2851 17.494 2.91133 15.9958 -28.4857 9.85106 0.629642 2.34475 3.73346 4.31425 -2.48845 4.09442 5.16538 7.81622 
-188.805 93.6776 -213.005 -91.4476 45.7398 -91.4852 -173.629 20.853 86.8672 -23.2443 12.7941 -1.41095 59.1091 1.03808 3.04513 28.6197 -0.284977 1.42153 177.455 6.97231 86.3507 -57.8605 -13.2422 -7.35541 50.5164 1.89973 1.64031 48.6147 -0.00742132 -8.97595 0.605808 7.3762 -89.6653 12.1188 1.36242 0.518612 0.448457 1.38394 0.458132 -22.0901 1.14356 0.904127 -2.07745 1.14358 0.904128 92.5141 -52.7145 -96.4692 14.9947 -6.61679 -1.36733 -19.8934 -21.9301 -63.426 -4.61011 -0.575249 0.262046 -99.6877 -50.9416 64.7967 -25.9622 12.9783 19.8787 2.53619 15.8837 -25.6225 12.6203 0.874483 2.94466 5.58122 3.19214 -1.37115 2.82972 3.74394 6.39178 
-182.436 92.6578 -208.102 -90.7147 48.3473 -91.8059 -173.913 25.1829 88.0491 -20.6857 10.0531 -1.06834 55.639 -1.64551 0.489017 35.6043 5.35622 4.1375 178.639 0.590599 87.3373 -49.005 -17.6299 -10.2057 57.4761 -0.350833 -0.112989 55.7194 0.572718 -4.76232 1.12352 7.44503 -89.6865 11.9814 2.38178 0.367451 0.312626 2.39564 0.262201 -22.237 2.16118 1.06659 -2.22433 2.16118 1.06658 91.1491 -50.1438 -99.0326 14.5269 -5.06329 -5.51412 -21.4505 -22.8583 -62.9772 -5.5422 -0.617388 0.427409 -100.207 -53.055 64.8088 -24.9923 10.6668 20.8263 2.01048 12.2499 -25.0202 15.618 1.18 3.64444 5.87272 2.37686 1.68492 3.43626 2.29539 3.56246 
-175.41 92.3194 -202.362 -89.9467 49.6618 -90.4572 -174.156 26.1861 90.3213 -12.3823 8.93804 -0.558549 58.857 1.56224 1.75749 38.6943 8.05146 6.58084 176.356 -0.86145 88.9444 -38.8284 -15.0652 -7.62954 74.5078 -6.9167 -3.34517 43.8795 0.53241 -3.28385 1.31892 7.61172 -89.9397 11.6551 2.65175 -0.156046 -0.0131662 2.64234 -0.272691 -22.5692 2.57598 0.648675 -2.55654 2.57599 0.648676 90.4298 -48.5194 -100.502 13.0643 -3.64279 -10.5824 -20.6084 -24.5755 -60.6447 -5.57893 -0.684964 1.45878 -101.898 -55.4607 63.3254 -24.0967 7.59221 20.6004 3.06999 8.7018 -26.774 13.1831 0.938788 3.15535 6.5026 2.41943 4.41985 4.29951 1.7725 1.95147 
-168.748 92.9487 -196.858 -90.443 48.7935 -88.5833 -173.75 25.2254 91.4092 -6.4433 5.90137 -0.549967 60.6663 2.24218 2.34148 39.3714 8.7593 8.73542 176.145 1.36695 92.0163 -33.5608 -7.77798 -4.90526 75.8376 -7.12451 -3.32818 43.4034 0.563925 -2.48831 1.2451 7.84852 -90.1764 11.185 2.3963 -0.583582 -0.483909 2.36828 -0.688541 -23.0368 2.46085 0.164024 -3.02416 2.46081 0.164016 89.7751 -47.5324 -101.766 12.3268 -2.71013 -10.6847 -19.6508 -24.3655 -59.6724 -7.25562 -0.801521 2.54646 -102.89 -56.159 62.2334 -24.3848 6.96821 18.1187 3.03694 7.26041 -29.0844 17.1986 1.40917 4.38292 7.4488 2.56177 5.12513 4.7537 1.78154 2.25983 
-163.273 94.4795 -192.933 -90.9867 46.3643 -90.2176 -172.591 22.8937 89.4227 -11.2737 2.66288 -1.94954 58.2242 0.747151 0.946766 36.8822 6.49626 8.73876 176.48 4.35083 91.5712 -31.5443 -5.36089 -5.12692 74.3119 -6.23467 -2.98489 38.6881 0.469189 -1.32932 0.81643 7.96795 -89.9219 10.9385 1.66158 -0.00239166 -0.731429 1.65987 -0.0755404 -23.2744 1.58547 0.497221 -3.2617 1.58547 0.497216 90.1375 -49.4795 -100.734 11.5311 -3.37188 -8.29382 -16.3296 -24.2239 -57.0969 -8.19283 -0.868112 3.17451 -103.449 -55.0968 61.0768 -24.3982 7.62784 16.7888 3.11322 6.99526 -32.1208 22.3121 1.61545 3.39332 7.04178 2.83065 3.31657 5.75693 2.43756 2.78212 
-159.033 96.2136 -189.317 -90.6113 43.4288 -91.2705 -170.841 21.5752 88.5525 -24.9404 0.906336 -2.70804 58.4027 0.833461 0.396496 37.7073 7.24108 8.51688 176.092 7.02618 91.13 -28.4448 -5.46696 -4.47426 68.4122 -3.75016 -1.96105 37.8318 0.412658 -2.83787 0.525228 7.82837 -89.8464 11.2166 1.11676 0.195694 -0.45388 1.12431 0.146345 -22.9922 1.00632 0.522312 -2.97956 1.00634 0.522315 91.0746 -50.8144 -99.0032 12.9538 -3.79006 -1.50885 -12.9154 -23.7389 -52.812 -8.71036 -0.854312 2.91164 -103.675 -53.8551 60.2915 -22.5455 9.89389 14.8145 3.63048 8.30374 -35.473 23.587 1.75683 3.63652 4.81942 2.64922 2.17077 6.19138 2.55017 3.13992 
-155.077 96.8746 -185.438 -90.9182 42.8377 -91.5638 -169.735 18.5536 89.3721 -38.0037 1.67369 -2.53627 57.5222 0.384988 0.605376 37.2758 6.84698 8.39837 175.964 9.37156 90.4126 -26.1772 -5.98942 -4.2352 65.4995 -2.67815 -1.43652 35.4707 0.345117 -1.81587 0.374197 7.70918 -89.7938 11.4544 0.840927 0.325404 -0.216287 0.854443 0.288066 -22.7528 0.704256 0.563097 -2.7401 0.704245 0.563099 91.7008 -50.8048 -98.052 15.0122 -4.45861 4.9638 -12.6403 -25.9562 -48.9579 -8.19671 -0.937809 4.03165 -102.416 -53.0313 61.714 -20.2858 9.06373 13.8215 5.35881 7.57106 -41.4309 24.7224 2.12587 4.80975 3.20205 3.18947 1.70001 6.86975 3.23324 3.48747 
-151.313 96.1389 -181.513 -90.8541 42.1294 -91.1838 -169.562 14.2975 91.4872 -46.7159 5.65539 -1.36254 54.9868 -1.29486 -0.0649275 39.1667 8.6115 9.37525 176.056 12.0666 90.6741 -25.2657 -5.18673 -3.76481 67.0797 -3.26427 -1.73687 31.6281 0.155079 -0.451595 0.123425 7.58186 -89.8261 11.7095 0.327094 0.312284 0.0385455 0.340545 0.297581 -22.4964 0.218133 0.396158 -2.48381 0.218117 0.396147 92.1974 -51.568 -97.1525 15.3136 -4.67246 9.76973 -10.7398 -28.4356 -44.3578 -6.2905 -0.933561 5.2581 -101.285 -51.8573 62.8583 -18.0384 6.68833 13.7411 7.44577 6.11471 -48.0831 24.5961 2.01244 4.3832 3.26194 4.2857 0.961338 6.12152 4.43451 3.95316 
-147.341 94.6959 -177.007 -90.5482 42.2951 -90.9073 -170.038 8.50866 93.3629 -48.7866 8.50987 -0.0214881 53.2246 -2.81837 -2.25193 43.679 12.6199 8.57361 177.274 18.2126 91.1353 -29.3241 -4.07268 -3.9209 67.0936 -3.53833 -1.90245 30.3768 0.0147073 1.36852 -0.126595 7.5225 -89.8871 11.8298 -0.198609 0.245957 0.158876 -0.187607 0.254456 -22.3765 -0.263343 0.174896 -2.36381 -0.263364 0.174885 92.3085 -52.8189 -96.7556 14.369 -3.54724 12.851 -9.23836 -29.8294 -39.9005 -4.68872 -0.896592 6.25946 -99.8289 -51.4127 64.7629 -14.8228 4.26262 11.928 9.23549 5.27631 -52.5905 22.0466 1.73891 4.06393 3.42826 5.49286 0.361406 5.94159 5.79348 5.02138 
-143.02 93.2089 -171.94 -90.6515 41.6188 -91.0612 -172.294 2.31974 92.8332 -45.749 17.8036 1.8211 53.7531 -2.72954 -0.600749 45.0148 14.353 11.9781 178.133 24.8602 90.5066 -33.353 -3.73047 -4.08149 64.2223 -2.73242 -1.50735 31.8051 0.166218 -0.216269 -0.503031 7.55203 -89.8782 11.771 -0.943102 0.342595 0.100349 -0.927094 0.383764 -22.4374 -1.00245 0.0432936 -2.42476 -1.00246 0.0432852 92.0555 -53.5537 -96.9983 14.4236 -1.28619 14.8806 -9.05194 -29.463 -36.3498 -4.10201 -0.921863 7.74325 -98.4439 -50.1639 66.3195 -13.2716 1.53381 9.5806 9.92058 4.7212 -53.5743 19.3185 1.52805 4.07162 2.11196 6.42314 -0.151137 7.80256 6.96603 6.02207 
